Coordinates
version=1
nRows=14
nColumns=24
inDegrees=yes

Units are S.I. units (second, meters, Newtons, ...)
Angles are in degrees.

endheader
time	pelvis_tilt	pelvis_list	pelvis_rotation	pelvis_tx	pelvis_ty	pelvis_tz	hip_flexion_r	hip_adduction_r	hip_rotation_r	knee_angle_r	ankle_angle_r	subtalar_angle_r	mtp_angle_r	hip_flexion_l	hip_adduction_l	hip_rotation_l	knee_angle_l	ankle_angle_l	subtalar_angle_l	mtp_angle_l	lumbar_extension	lumbar_bending	lumbar_rotation
      3.47500000	     16.25606504	     -0.13834417	      3.67986487	      0.19612956	      0.96793829	      0.05514189	    -16.15506994	      2.63056644	      1.10995046	     -0.12528655	     11.28838673	     -4.77652455	     28.96218558	    -10.92626524	    -11.14564649	    -11.19008971	    -51.38241841	      2.10051078	      1.14515730	     45.58017333	    -22.84546057	      5.35931444	     -2.58490095
      3.48000000	     16.03982073	     -0.08300709	      3.72218663	      0.20011463	      0.96783172	      0.05553417	    -16.29511163	      2.61953760	      1.06508707	      0.07481012	     11.48467539	     -4.76257601	     28.00348200	    -10.01532828	    -11.17034449	    -11.17590787	    -51.64584478	      2.99751782	      1.14440464	     42.14499458	    -22.67212432	      5.31252542	     -2.56508990
      3.48500000	     15.91730754	      0.02245713	      3.70829404	      0.20411748	      0.96786645	      0.05592998	    -16.53487009	      2.54191978	      0.99751175	      0.26958366	     11.64214835	     -4.70452546	     27.99370562	     -9.27804348	    -11.10839416	    -11.23764774	    -51.71461524	      3.65795050	      0.86346528	     42.10251493	    -22.60822643	      5.20103161	     -2.50482291
      3.49000000	     15.73940120	      0.09094744	      3.70934006	      0.20804871	      0.96777890	      0.05631311	    -16.70513143	      2.50012708	      0.97704911	      0.46103278	     11.81040663	     -4.62985169	     27.94473180	     -8.45835157	    -11.08176646	    -11.27750171	    -51.77266648	      4.33299179	      0.83811020	     41.98138893	    -22.48946578	      5.12675750	     -2.44608608
      3.49500000	     15.65048247	      0.19732860	      3.66902224	      0.21200757	      0.96781098	      0.05669686	    -16.98575217	      2.41020990	      0.96999751	      0.67679288	     11.92612900	     -4.58105863	     27.92745042	     -7.79652744	    -10.99100205	    -11.38343695	    -51.68686605	      4.98089032	      0.78675018	     41.95224007	    -22.47319060	      5.00554392	     -2.36434832
      3.50000000	     15.42400471	      0.23883310	      3.66331989	      0.21591848	      0.96758897	      0.05706603	    -17.06854905	      2.39449573	      0.90892928	      0.80664566	     12.13082764	     -4.53038363	     27.85247045	     -6.94680081	    -10.97504416	    -11.45870962	    -51.62142587	      5.67267602	      1.08030041	     41.79419096	    -22.30529129	      4.95101337	     -2.27765292
      3.50500000	     15.22975363	      0.26444568	      3.64200335	      0.21978493	      0.96738128	      0.05741007	    -17.19608112	      2.38345492	      0.92444092	      0.96630298	     12.31551948	     -4.43308124	     27.71117725	     -6.14378204	    -10.95673447	    -11.55543513	    -51.49492571	      6.32924596	      1.35203521	     41.48039782	    -22.17947955	      4.91328704	     -2.14756875
      3.51000000	     15.01442863	      0.30305771	      3.62463478	      0.22364268	      0.96712362	      0.05770218	    -17.28118765	      2.35828297	      0.89509346	      1.07425445	     12.61955434	     -4.27907487	     26.50373293	     -5.33173988	    -10.89883362	    -11.65047325	    -51.30936437	      7.08845476	      1.69576011	     38.78293432	    -22.03252069	      4.86370115	     -2.06282126
      3.51500000	     14.92405262	      0.37682085	      3.55688028	      0.22759369	      0.96704509	      0.05806393	    -17.53350118	      2.29065968	      0.87324353	      1.24741260	     12.76415881	     -4.17823933	     26.49448715	     -4.73817686	    -10.79967815	    -11.83131356	    -50.93833030	      7.67325404	      2.07132600	     38.79529940	    -22.02000619	      4.76104344	     -1.90860596
      3.52000000	     14.76831733	      0.41203521	      3.50920357	      0.23148796	      0.96684259	      0.05837075	    -17.69153795	      2.26114906	      0.86178517	      1.38211205	     12.94952494	     -4.07008029	     26.46782589	     -4.05600992	    -10.72490206	    -11.98789991	    -50.54364926	      8.22437784	      2.43386902	     38.76413648	    -21.93872843	      4.70559748	     -1.75395878
      3.52500000	     14.61540091	      0.44235387	      3.45952987	      0.23537593	      0.96661884	      0.05865194	    -17.84988178	      2.23360136	      0.86011617	      1.51286614	     13.13390296	     -3.96440337	     26.42586115	     -3.39468837	    -10.63806568	    -12.15250137	    -50.07422621	      8.74552035	      2.78747448	     38.70295380	    -21.86260159	      4.65515734	     -1.59720840
      3.53000000	     14.47135388	      0.46656992	      3.40446214	      0.23926309	      0.96638379	      0.05892430	    -18.01397300	      2.21043060	      0.86042792	      1.63631215	     13.32481421	     -3.85396196	     26.36866490	     -2.76165995	    -10.54519826	    -12.33199196	    -49.53294887	      9.23345543	      3.15912912	     38.61443457	    -21.79748897	      4.60977780	     -1.42718503
      3.53500000	     14.33681028	      0.49174088	      3.34223666	      0.24314476	      0.96615291	      0.05917937	    -18.18654213	      2.18182105	      0.87065005	      1.75742586	     13.51580142	     -3.74515106	     26.30044473	     -2.16337679	    -10.43373162	    -12.51972375	    -48.90604980	      9.68883846	      3.52413627	     38.50618824	    -21.74636918	      4.56134259	     -1.24900648
      3.54000000	     14.21231017	      0.51342317	      3.27719681	      0.24703327	      0.96592027	      0.05941698	    -18.36574594	      2.15530316	      0.88251491	      1.86964162	     13.71134927	     -3.62744835	     26.21953883	     -1.59784317	    -10.31194168	    -12.71965873	    -48.20259563	     10.11148662	      3.89716183	     38.37742511	    -21.70509314	      4.51647631	     -1.06193023
